<!DOCTYPE svg PUBLIC "-//W3C//DTD SVG 1.1//EN" "http://www.w3.org/Graphics/SVG/1.1/DTD/svg11.dtd">
<!-- Uploaded to: SVG Repo, www.svgrepo.com, Transformed by: SVG Repo Mixer Tools -->
<svg width="800px" height="800px" viewBox="0 0 16 16" xmlns="http://www.w3.org/2000/svg" fill="none">
<g id="SVGRepo_bgCarrier" stroke-width="0"/>
<g id="SVGRepo_tracerCarrier" stroke-linecap="round" stroke-linejoin="round"/>
<g id="SVGRepo_iconCarrier">
<path fill="#ffffff" fill-rule="evenodd" d="M6.834.33a2.25 2.25 0 012.332 0l5.25 3.182A2.25 2.25 0 0115.5 5.436v5.128a2.25 2.25 0 01-1.084 1.924l-5.25 3.182a2.25 2.25 0 01-2.332 0l-5.25-3.182A2.25 2.25 0 01.5 10.564V5.436a2.25 2.25 0 011.084-1.924L6.834.33zm1.555 1.283a.75.75 0 00-.778 0l-5.25 3.181A.75.75 0 002 5.436v5.128a.75.75 0 00.361.642l5.25 3.181a.75.75 0 00.778 0l5.25-3.181a.75.75 0 00.361-.642V5.436a.75.75 0 00-.361-.642l-5.25-3.181z" clip-rule="evenodd"/>
</g>
</svg>