<svg width="378" height="378" xmlns="http://www.w3.org/2000/svg" xmlns:xlink="http://www.w3.org/1999/xlink" overflow="hidden"><defs><clipPath id="clip0"><rect x="0" y="0" width="378" height="378"/></clipPath></defs><g clip-path="url(#clip0)"><rect x="0" y="0" width="378" height="378" fill="#FFFFFF"/><rect x="19.5001" y="19.5001" width="19" height="340" stroke="#000000" stroke-width="1.33333" stroke-miterlimit="8"/><rect x="19.5001" y="340.5" width="340" height="19" stroke="#000000" stroke-width="1.33333" stroke-miterlimit="8"/><rect x="38.5001" y="283.5" width="19" height="19" stroke="#000000" stroke-width="1.33333" stroke-miterlimit="8"/><rect x="76.5001" y="321.5" width="18" height="19" stroke="#000000" stroke-width="1.33333" stroke-miterlimit="8"/><rect x="38.5001" y="208.5" width="19" height="18" stroke="#000000" stroke-width="1.33333" stroke-miterlimit="8"/><rect x="38.5001" y="132.5" width="19" height="19" stroke="#000000" stroke-width="1.33333" stroke-miterlimit="8"/><rect x="38.5001" y="56.5001" width="19" height="18" stroke="#000000" stroke-width="1.33333" stroke-miterlimit="8"/><rect x="151.5" y="321.5" width="19" height="19" stroke="#000000" stroke-width="1.33333" stroke-miterlimit="8"/><rect x="227.5" y="321.5" width="19" height="19" stroke="#000000" stroke-width="1.33333" stroke-miterlimit="8"/><rect x="302.5" y="321.5" width="19" height="19" stroke="#000000" stroke-width="1.33333" stroke-miterlimit="8"/><rect x="340.5" y="19.5001" width="19" height="264" stroke="#000000" stroke-width="1.33333" stroke-miterlimit="8"/><rect x="94.5001" y="19.5001" width="19" height="264" stroke="#000000" stroke-width="1.33333" stroke-miterlimit="8"/><rect x="94.5001" y="264.5" width="265" height="19" stroke="#000000" stroke-width="1.33333" stroke-miterlimit="8"/><rect x="94.5001" y="19.5001" width="265" height="19" stroke="#000000" stroke-width="1.33333" stroke-miterlimit="8"/><path d="M144.526 143.108 169.806 122.821 173.311 114.555 162.798 115.307 170.307 106.04 178.567 106.04 182.071 111.299 191.582 109.296 195.337 100.53 202.595 98.2754 233.632 97.2736 238.638 88.5074 245.897 84.5001 257.911 91.7635 271.928 94.268 277.184 95.0194 294.955 107.793 286.445 134.592 304.467 139.1 306.719 145.612 318.233 149.87 328.245 139.351 332.5 144.861 331.749 166.401 331.749 170.658 320.736 167.903 314.729 169.907 310.974 177.421 316.731 180.677 317.983 189.443 313.978 192.198 306.469 181.929 294.204 187.69 288.448 185.937 285.444 181.929 284.443 173.914 277.685 173.414 273.93 179.425 274.681 191.948 268.674 199.211 263.918 206.725 266.421 215.992 264.169 220.5 260.164 217.745 258.162 209.981 252.905 206.975 255.909 202.467 246.398 197.959 237.887 190.695 238.638 188.441 239.639 176.169 229.628 176.419 221.618 189.693 217.613 206.725 210.605 212.235 195.087 208.478 175.563 215.741 165.802 200.964 161.296 194.703 163.048 186.688 161.296 179.425 150.033 175.167 140.521 178.924 134.514 184.935 135.766 192.699 128.757 196.957 122.5 197.207 123.501 192.448 127.756 189.693 129.508 180.677 128.757 176.669 130.009 167.653 146.529 154.379 144.526 143.108Z" stroke="#000000" stroke-width="1.33333" stroke-miterlimit="8" fill="#AFABAB" fill-rule="evenodd"/></g></svg>